<mxfile host="Electron" agent="Mozilla/5.0 (Windows NT 10.0; Win64; x64) AppleWebKit/537.36 (KHTML, like Gecko) draw.io/26.0.16 Chrome/132.0.6834.196 Electron/34.2.0 Safari/537.36" version="26.0.16">
  <diagram name="Страница — 1" id="hJ6JvsJhsmxKCeL5lplj">
    <mxGraphModel dx="1235" dy="787" grid="1" gridSize="10" guides="1" tooltips="1" connect="1" arrows="1" fold="1" page="1" pageScale="1" pageWidth="827" pageHeight="1169" math="0" shadow="0">
      <root>
        <mxCell id="0" />
        <mxCell id="1" parent="0" />
        <mxCell id="IYlatKNzNanQtNeY5i8I-16" style="edgeStyle=orthogonalEdgeStyle;rounded=0;orthogonalLoop=1;jettySize=auto;html=1;exitX=0.5;exitY=1;exitDx=0;exitDy=0;entryX=0.5;entryY=0;entryDx=0;entryDy=0;" edge="1" parent="1" source="IYlatKNzNanQtNeY5i8I-1" target="IYlatKNzNanQtNeY5i8I-2">
          <mxGeometry relative="1" as="geometry" />
        </mxCell>
        <mxCell id="IYlatKNzNanQtNeY5i8I-1" value="Ввод суммы и категорий" style="rounded=0;whiteSpace=wrap;html=1;" vertex="1" parent="1">
          <mxGeometry x="360" y="140" width="120" height="60" as="geometry" />
        </mxCell>
        <mxCell id="IYlatKNzNanQtNeY5i8I-17" style="edgeStyle=orthogonalEdgeStyle;rounded=0;orthogonalLoop=1;jettySize=auto;html=1;exitX=0.5;exitY=1;exitDx=0;exitDy=0;entryX=0.5;entryY=0;entryDx=0;entryDy=0;" edge="1" parent="1" source="IYlatKNzNanQtNeY5i8I-2" target="IYlatKNzNanQtNeY5i8I-3">
          <mxGeometry relative="1" as="geometry" />
        </mxCell>
        <mxCell id="IYlatKNzNanQtNeY5i8I-2" value="Проверка:&lt;div&gt;Поля не пустые?&lt;/div&gt;" style="rhombus;whiteSpace=wrap;html=1;" vertex="1" parent="1">
          <mxGeometry x="320" y="230" width="200" height="80" as="geometry" />
        </mxCell>
        <mxCell id="IYlatKNzNanQtNeY5i8I-18" style="edgeStyle=orthogonalEdgeStyle;rounded=0;orthogonalLoop=1;jettySize=auto;html=1;exitX=0.5;exitY=1;exitDx=0;exitDy=0;entryX=0.5;entryY=0;entryDx=0;entryDy=0;" edge="1" parent="1" source="IYlatKNzNanQtNeY5i8I-3" target="IYlatKNzNanQtNeY5i8I-4">
          <mxGeometry relative="1" as="geometry" />
        </mxCell>
        <mxCell id="IYlatKNzNanQtNeY5i8I-3" value="Проверка:&lt;div&gt;Сумма - число?&lt;/div&gt;" style="rhombus;whiteSpace=wrap;html=1;" vertex="1" parent="1">
          <mxGeometry x="320" y="340" width="200" height="80" as="geometry" />
        </mxCell>
        <mxCell id="IYlatKNzNanQtNeY5i8I-19" style="edgeStyle=orthogonalEdgeStyle;rounded=0;orthogonalLoop=1;jettySize=auto;html=1;exitX=0.5;exitY=1;exitDx=0;exitDy=0;entryX=0.5;entryY=0;entryDx=0;entryDy=0;" edge="1" parent="1" source="IYlatKNzNanQtNeY5i8I-4" target="IYlatKNzNanQtNeY5i8I-5">
          <mxGeometry relative="1" as="geometry" />
        </mxCell>
        <mxCell id="IYlatKNzNanQtNeY5i8I-4" value="Сохранить в CSV" style="rounded=0;whiteSpace=wrap;html=1;" vertex="1" parent="1">
          <mxGeometry x="360" y="450" width="120" height="60" as="geometry" />
        </mxCell>
        <mxCell id="IYlatKNzNanQtNeY5i8I-20" style="edgeStyle=orthogonalEdgeStyle;rounded=0;orthogonalLoop=1;jettySize=auto;html=1;exitX=0.5;exitY=1;exitDx=0;exitDy=0;entryX=0.5;entryY=0;entryDx=0;entryDy=0;" edge="1" parent="1" source="IYlatKNzNanQtNeY5i8I-5" target="IYlatKNzNanQtNeY5i8I-6">
          <mxGeometry relative="1" as="geometry" />
        </mxCell>
        <mxCell id="IYlatKNzNanQtNeY5i8I-5" value="Проверить в таблице" style="rounded=0;whiteSpace=wrap;html=1;" vertex="1" parent="1">
          <mxGeometry x="360" y="540" width="120" height="60" as="geometry" />
        </mxCell>
        <mxCell id="IYlatKNzNanQtNeY5i8I-21" style="edgeStyle=orthogonalEdgeStyle;rounded=0;orthogonalLoop=1;jettySize=auto;html=1;exitX=0.5;exitY=1;exitDx=0;exitDy=0;entryX=0.5;entryY=0;entryDx=0;entryDy=0;" edge="1" parent="1" source="IYlatKNzNanQtNeY5i8I-6" target="IYlatKNzNanQtNeY5i8I-7">
          <mxGeometry relative="1" as="geometry" />
        </mxCell>
        <mxCell id="IYlatKNzNanQtNeY5i8I-6" value="Показать превышения" style="rounded=0;whiteSpace=wrap;html=1;" vertex="1" parent="1">
          <mxGeometry x="360" y="630" width="120" height="60" as="geometry" />
        </mxCell>
        <mxCell id="IYlatKNzNanQtNeY5i8I-7" value="Конец" style="ellipse;whiteSpace=wrap;html=1;aspect=fixed;" vertex="1" parent="1">
          <mxGeometry x="380" y="730" width="80" height="80" as="geometry" />
        </mxCell>
        <mxCell id="IYlatKNzNanQtNeY5i8I-15" style="edgeStyle=orthogonalEdgeStyle;rounded=0;orthogonalLoop=1;jettySize=auto;html=1;exitX=0.5;exitY=1;exitDx=0;exitDy=0;" edge="1" parent="1" source="IYlatKNzNanQtNeY5i8I-8" target="IYlatKNzNanQtNeY5i8I-1">
          <mxGeometry relative="1" as="geometry" />
        </mxCell>
        <mxCell id="IYlatKNzNanQtNeY5i8I-8" value="Начало" style="ellipse;whiteSpace=wrap;html=1;aspect=fixed;" vertex="1" parent="1">
          <mxGeometry x="380" y="30" width="80" height="80" as="geometry" />
        </mxCell>
        <mxCell id="IYlatKNzNanQtNeY5i8I-10" value="" style="endArrow=none;html=1;rounded=0;exitX=1;exitY=0.5;exitDx=0;exitDy=0;entryX=1;entryY=0.5;entryDx=0;entryDy=0;" edge="1" parent="1" source="IYlatKNzNanQtNeY5i8I-1" target="IYlatKNzNanQtNeY5i8I-2">
          <mxGeometry width="50" height="50" relative="1" as="geometry">
            <mxPoint x="530" y="220" as="sourcePoint" />
            <mxPoint x="580" y="170" as="targetPoint" />
            <Array as="points">
              <mxPoint x="560" y="170" />
              <mxPoint x="560" y="270" />
            </Array>
          </mxGeometry>
        </mxCell>
        <mxCell id="IYlatKNzNanQtNeY5i8I-11" value="Да" style="text;html=1;align=center;verticalAlign=middle;whiteSpace=wrap;rounded=0;" vertex="1" parent="1">
          <mxGeometry x="500" y="140" width="60" height="30" as="geometry" />
        </mxCell>
        <mxCell id="IYlatKNzNanQtNeY5i8I-12" value="Да" style="text;html=1;align=center;verticalAlign=middle;whiteSpace=wrap;rounded=0;" vertex="1" parent="1">
          <mxGeometry x="500" y="240" width="60" height="30" as="geometry" />
        </mxCell>
        <mxCell id="IYlatKNzNanQtNeY5i8I-13" value="" style="endArrow=none;html=1;rounded=0;entryX=0;entryY=0.5;entryDx=0;entryDy=0;exitX=0;exitY=0.5;exitDx=0;exitDy=0;" edge="1" parent="1" source="IYlatKNzNanQtNeY5i8I-7" target="IYlatKNzNanQtNeY5i8I-1">
          <mxGeometry width="50" height="50" relative="1" as="geometry">
            <mxPoint x="220" y="210" as="sourcePoint" />
            <mxPoint x="270" y="160" as="targetPoint" />
            <Array as="points">
              <mxPoint x="260" y="770" />
              <mxPoint x="260" y="170" />
            </Array>
          </mxGeometry>
        </mxCell>
        <mxCell id="IYlatKNzNanQtNeY5i8I-14" value="Нет" style="text;html=1;align=center;verticalAlign=middle;whiteSpace=wrap;rounded=0;" vertex="1" parent="1">
          <mxGeometry x="300" y="140" width="60" height="30" as="geometry" />
        </mxCell>
      </root>
    </mxGraphModel>
  </diagram>
</mxfile>
